<?xml version="1.0" encoding="UTF-8"?>
<svg id="Layer_1" data-name="Layer 1" xmlns="http://www.w3.org/2000/svg" viewBox="0 0 196.52 211.2">
  <defs>
    <style>
      .cls-1 {
        fill: #fff;
      }
    </style>
  </defs>
  <path class="cls-1" d="M150.14,57.6c-20.01-1.55-43.36,7.77-50.04,26.43,0-24.88,30.02-35.76,46.7-51.31,1.67-1.55,3.34-6.22,1.67-7.77-16.68-10.88-40.03-3.11-53.37,10.88-8.34,9.33-13.34,20.21-13.34,31.1,0,3.11,0,10.88,11.67,6.22,0,7.77-8.34,12.44-3.34,20.21-11.67-9.33-25.02-17.1-36.69-26.43-6.67-4.66-18.35-6.22-23.35,1.55-5,10.88-1.67,24.88,8.34,34.21,15.01,13.99,40.03,20.21,56.71,6.22,3.34,3.11,8.34,7.77,11.67,10.88h-11.67c-20.01,6.22-38.36,9.33-58.37,9.33-3.34,0-6.67,3.11-6.67,4.66,3.34,10.88,13.34,13.99,23.35,17.1,18.35,4.66,36.69,3.11,51.7-7.77-5,13.99-18.35,24.88-18.35,38.87,0,4.66,6.67,7.77,11.67,9.33,28.35,1.55,25.02-32.65,25.02-51.31,11.67,4.66,23.35,3.11,35.02-3.11,6.67-4.66,11.67-12.44,10.01-20.21-3.34-12.44-13.34-20.21-25.02-23.32-16.68-3.11-28.35,9.33-28.35,23.32-3.34-4.66-6.67-9.33-10.01-13.99,20.01-15.55,43.36-23.32,68.38-29.54,1.67-1.55,3.34-3.11,1.67-4.66-6.67-6.22-13.34-12.44-25.02-10.88h0Z"/>
</svg>