<?xml version="1.0" encoding="UTF-8"?>
<svg id="Layer_1" data-name="Layer 1" xmlns="http://www.w3.org/2000/svg" viewBox="0 0 196.52 211.2">
  <defs>
    <style>
      .cls-1 {
        fill: #fff;
      }
    </style>
  </defs>
  <path class="cls-1" d="M77.21,174.68c1.38-2.03,3.26-4.45,5.28-6.26,3.98-3.83,7.91-8.01,10.53-12.9,1.36-2.57,2.27-5.34,3.18-8.1,1.53-5.02,3.9-9.65,5.6-14.63,1.06-3.16,1.69-6.62,2.42-9.83.63-2.69.93-3.51.97.41.02,1.07.06,2.33.1,3.48.13,5.12.92,10.12,1.26,15.18.54,6.59-.83,13.25.3,19.77.82,4.99,3.29,9.47,5.47,13.98,1.91,3.85,3.4,8.07,6.05,11.35,1.96,2.45,4.5,4.38,7,6.25,5.35,4.26,11.21,7.56,17.93,9.04,4.86,1.22,10.71,2.26,15.16-.46,5.78-3.49,5.21-10.99,4.21-16.85-.7-4.57-1.01-9.18-1.38-13.77-.31-3.9-.68-7.78-.97-11.68-.54-7.7-1.27-15.49-4.75-22.44-2.72-5.5-6.75-10.3-11.27-14.42-5.08-4.53-11.27-7.82-17.68-10.11-5.75-2.02-3.06-3.42,1.06-4.43,4.27-1.01,8.92-.73,13.29-1.1,7.81-.8,15.7-4.36,21.17-10.04,2.59-2.76,4.73-5.89,7.04-8.89,2-2.62,4.08-5.16,5.91-7.9,3.26-4.84,5.9-9.96,8.97-15.01,1.25-2.09,2.56-4.14,3.74-6.26,5.79-9.61,4.61-20.98-8.1-22.9-4.32-.56-8.73.33-12.97,1.22-5.99,1.41-11.97,2.3-18.03,3.13-5.61.86-10.88,2.99-16.28,4.72-6.22,1.85-12.18,4.36-17.85,7.52-3.62,1.94-7.46,4.01-9.89,7.39-3.01,4.19-3.71,9.94-5.15,14.97-.68,2.27-1.45,5.92-3.19,7.3-2.63,1.71-4.67-6.1-5.69-7.93-2.7-6.11-7.33-11.08-11-16.61-7-10.77-14.62-14.82-26.65-18.57-4.14-1.31-8.31-2.52-12.62-2.78-3.75-.25-7.53-.1-11.27-.47-3.3-.28-6.67-.92-9.95-.87-10.01.08-13.16,6.63-11.2,15.95,2.29,10.42,8.58,19.37,13.67,28.57,1.48,2.73,2.73,5.58,4.22,8.3,2.12,3.93,4.85,7.46,7.35,11.2,1.44,2.14,2.88,4.35,4.74,6.15,2.18,2.14,4.89,3.66,7.56,5.14,6.67,3.74,10.76,6.23,18.6,5.27,2.3-.2,5.04-.54,7.25-.52,9.97.32-4.94,5.3-7.15,6.17-4.03,1.47-7.68,3.04-11.34,5.12-2.52,1.41-5.03,2.85-7.68,4-2.47,1.09-5.05,1.92-7.61,2.79-9.05,2.77-16.57,9.01-22.2,16.49-4.92,6.28-6.96,14.23-8.83,21.94-1.59,6.29-2.31,13.41,3.28,17.65,4.5,3.59,10.41,4.26,15.95,5.06,4.5.67,9.14,1.02,13.5-.51,2.56-.83,5.02-1.98,7.54-2.95,3.7-1.47,7.53-2.52,11.29-3.85,4.74-1.76,9.58-3.74,13.77-6.61,2.23-1.64,3.89-3.75,5.34-5.8v-.02Z"/>
</svg>