<?xml version="1.0" encoding="UTF-8"?>
<svg id="Layer_1" xmlns="http://www.w3.org/2000/svg" version="1.1" viewBox="0 0 196.52 211.2">
  <!-- Generator: Adobe Illustrator 30.3.0, SVG Export Plug-In . SVG Version: 2.1.3 Build 182)  -->
  <defs>
    <style>
      .inside-st0 {
        fill: currentColor;
      }
    </style>
  </defs>
  <path class="inside-st0" d="M142.93,119.33h0c-2.54-4.89-7.37-8.25-12.61-8.77l-1.29-.13-.85.99-5.59,4.5c-.51.41-1.37,1.09-1.83,2.23-.41,1.02-.35,2.01-.27,2.67.24,1.9.98,3.59,1.6,4.85.89,1.8,2.35,4.38,4.81,5.87,2.13,1.3,4.47,1.52,6.27,1.56.17,0,.33,0,.5,0,4.69,0,8.3-1.66,10.18-4.7.59-.96.93-1.95,1.01-2.94.12-1.59-.46-2.94-.88-3.92-.29-.69-.63-1.47-1.02-2.22Z"/>
  <path class="inside-st0" d="M192.08,33.43c-.55-1.87-1.93-3.43-3.8-4.28-28.19-12.77-61.82-13.95-91.13-14.05-12.85-.04-26.13-.09-39.12-1.29-.86-.67-1.74-1.32-2.62-1.98-.64-.48-1.28-.95-1.91-1.43l-.21-.16-.24-.11c-.94-.44-1.87-.87-2.81-1.29l-1.92-.86-1.18,1.74c-.56.82-1.03,1.72-1.42,2.69-5.2-.58-10.42-.95-15.5-1.31l-3.87-.28c-2.71-.21-4.89-.85-6.48-1.91l-1.01-.67-1.15.37c-.16.05-.32.11-.48.18l-.23.12c-4.1,2.43-6.88,6.17-9.57,9.8-.49.65-.97,1.31-1.47,1.96l-.16.21-.11.24c-.44.94-.87,1.87-1.29,2.81l-.86,1.92,1.74,1.18c6.47,4.38,15.15,2.42,22.12.84.78-.18,1.55-.35,2.28-.51,4.62-.99,9.55-1.45,15.38-1.4.35,2.05.8,4.06,1.21,5.88.18.78.35,1.54.5,2.26,2.38,11.13,1.24,22.9.14,34.28-.51,5.31-1.04,10.79-1.22,16.2-.18,5.45-.27,11-.35,16.37-.16,10.08-.32,20.51-1.11,30.63-.57,7.36-1.55,15.12-2.91,23.06-1.35,7.89-3.03,14.72-5.15,20.88-.81,2.36-1.83,4.79-2.82,7.14-.4.95-.8,1.89-1.18,2.82-1.41,3.44.13,8.12,3.36,10.23,1.57,1.02,3.4,1.3,5.15.79,1.87-.55,3.43-1.93,4.28-3.8,12.77-28.19,13.95-61.82,14.05-91.13v-.31c.06-15.52.11-31.58,2.21-47.01.89-6.54,1.35-13.13,1.81-19.5.09-1.24.18-2.48.27-3.74l.02-.24c.1-1.3.3-2.49.61-3.55,5.31.51,10.81,1.04,16.21,1.22,5.45.18,11,.27,16.38.35,9.96.16,20.25.32,30.25,1.08,1.02,3.71,2.75,7.28,4.3,10.48.35.71.68,1.41,1,2.07,4.85,10.29,6.42,22.01,7.93,33.35.71,5.28,1.44,10.75,2.5,16.05,1.06,5.35,2.24,10.78,3.38,16.02,2.14,9.85,4.35,20.04,5.88,30.07,1.12,7.29,1.93,15.07,2.41,23.11.48,7.98.39,15.02-.26,21.5-.25,2.49-.7,5.09-1.13,7.6-.17,1.02-.35,2.02-.5,3.01-.58,3.67,1.98,7.88,5.6,9.19.72.26,1.46.39,2.19.39,1.04,0,2.07-.27,3.01-.8,1.7-.96,2.9-2.66,3.3-4.67,6.03-30.36-.47-63.37-7.03-91.94l-.07-.3c-3.48-15.13-7.07-30.78-8.54-46.28-.62-6.56-1.66-13.08-2.67-19.39-.2-1.23-.39-2.46-.6-3.78l-.03-.18c-.17-1.1-.25-2.14-.23-3.1,1,.16,2,.33,3,.5,7.89,1.35,14.72,3.03,20.88,5.15,2.36.81,4.79,1.83,7.14,2.82.95.4,1.9.8,2.83,1.18,3.44,1.41,8.12-.14,10.23-3.36,1.02-1.57,1.3-3.4.79-5.15Z"/>
</svg>