<?xml version="1.0" encoding="UTF-8"?>
<svg id="Layer_1" data-name="Layer 1" xmlns="http://www.w3.org/2000/svg" viewBox="0 0 196.52 211.2">
  <defs>
    <style>
      .cls-1 {
        fill: #fff;
      }
    </style>
  </defs>
  <path class="cls-1" d="M177.97,127.29c-1.96-4.18-4.9-7.88-8.7-10.09-1.51-.88-3.31-1.73-3.73-3.55-.35-1.51.42-3.07,1.05-4.52,1.89-4.32,2.72-9.13,2.38-13.81-.06-.86-.18-1.77-.71-2.4-1.04-1.25-2.95-.72-4.47-.14-8.99,3.45-18.43,5.36-27.85,5.63-4.59.13-9.35-.08-13.59,2.03-.26.13-.51.27-.76.41-.66-2.31-1.5-4.56-2.44-6.69-1.38-3.11-3-6.12-4.84-8.95,1.62.53,3.33.75,5.03.53,2.84-.09,5.61-1.24,8.33-2.16,6.93-2.36,14.86-3.27,21.66-.33,1.96.85,4.67,1.82,5.83.14.68-.99.28-2.31.26-3.51-.04-2.39,1.51-4.5,3.25-6.18,1.74-1.68,3.76-3.13,5.08-5.13,2.52-3.82,2.01-8.78,1.24-13.29-1.19-6.98-2.83-14-6.18-20.34-3.35-6.34-8.59-12.02-15.39-14.85-5.17-2.16-10.9-2.56-16.5-2.68-3.44-.07-6.92-.04-10.24.79-6.39,1.6-11.79,6.31-14.03,12.26-.51,1.36-.88,2.79-1.66,4.03-.78,1.24-2.09,2.28-3.61,2.28-2.11,0-3.97-1.96-6.05-1.66-1.92.28-2.96,2.45-2.64,4.3s1.59,3.4,2.82,4.88c2.11,2.53,4.22,5.08,5.74,7.96,2.28,4.31,3.14,9.14,4.17,13.86.49,2.24,1.03,4.51,1.79,6.69-3.95-3.12-8.36-5.49-13.18-6.81-2.59-.7-5.32-1.1-7.97-.46-.76.18-1.5.45-2.21.78-1.61-6.36-1.9-13.31.68-19.41.85-2.01,1.83-4.79.19-5.96-.96-.68-2.26-.27-3.43-.23-2.34.07-4.39-1.49-6.01-3.25s-3.03-3.81-4.97-5.13c-3.71-2.53-8.57-1.96-13-1.12-6.85,1.29-13.73,3.03-19.98,6.53-6.25,3.49-11.85,8.91-14.7,15.88-2.16,5.31-2.62,11.16-2.8,16.88-.11,3.52-.11,7.07.66,10.45,1.5,6.52,6.06,11.98,11.86,14.21,1.33.51,2.72.87,3.92,1.65,1.2.78,2.21,2.11,2.19,3.66-.02,2.16-1.96,4.07-1.69,6.2.25,1.96,2.37,3,4.18,2.66,1.81-.34,3.35-1.66,4.8-2.93,2.49-2.18,5.02-4.36,7.85-5.95,3.14-1.76,6.55-2.72,9.98-3.55,0,.02,0,.05,0,.07.05,2.19.5,4.32.95,6.43,1.1,5.18,2.21,10.36,3.31,15.54l-1.53-2.5c.26,2.2,1.12,4.21,2.34,5.95-3.03.06-6.07.32-9.09.59l1.76.3c-10.98,4.03-23.51-3.69-35.1-1.6-2.32.42-4.72,1.36-5.88,3.32-3.1,5.25,4.82,10.59,6.09,16.58.89,4.19-1.64,8.18-3.21,12.13-4.36,11-.82,24.59,8.48,32.57,9.3,7.98,23.75,9.83,34.63,4.42,4.12-2.05,7.76-5.08,9.97-9,.87-1.55,1.73-3.4,3.51-3.85,1.48-.37,3,.4,4.41,1.03,4.21,1.88,8.91,2.68,13.49,2.29.84-.07,1.73-.21,2.35-.75,1.24-1.08.73-3.03.18-4.57-3.28-9.15-5.05-18.77-5.21-28.39-.08-4.68.18-9.56-1.84-13.86-.16-.34-.33-.68-.52-1,4.65.8,9.36,1.16,14.07.41,2.9-.46,5.82-1.43,8.49-2.87.09,1.6.21,3.19.33,4.77l.31-1.8c3.83,11.17-3.86,24.06-1.94,35.88.38,2.36,1.29,4.81,3.19,5.97,5.11,3.11,10.42-5.04,16.3-6.4,4.11-.95,7.99,1.59,11.84,3.15,10.72,4.34,24.06.58,31.97-9.01,7.91-9.59,9.87-24.37,4.69-35.43Z"/>
</svg>