<?xml version="1.0" encoding="UTF-8"?>
<svg id="Layer_1" data-name="Layer 1" xmlns="http://www.w3.org/2000/svg" viewBox="0 0 196.52 211.2">
  <defs>
    <style>
      .cls-1 {
        fill: #fff;
      }
    </style>
  </defs>
  <path class="cls-1" d="M168.44,76.06c.17-3.24.18-6.51-.22-9.74-.43-3.33-1.46-9.56-4.76-10.41-3.06-.55-6.47,4.71-8.63,7.14-2.38,2.87-4.75,5.74-6.93,8.78-2.29,3.22-4.41,6.61-6.91,9.66-1.87,2.26-4.43,5.27-7.46,4.44-3.33-1.1-5.18-5.66-7.09-8.78-2.24-3.93-4.25-8.06-6.99-11.63-5.63-7.44-14-11.66-21.21-17.12-4.05-3.14-8.24-6.11-13.02-7.81-1.74-.65-3.52-1.18-5.27-1.82-2.22-.68-6.73-3.19-8.53-2.3-1.57.81-1.02,3.75-.8,5.61.5,3.13,1.11,6.49,1.56,9.69.31,2.13.61,4.25,1,6.36,1.25,6.8,3.57,13.28,4.89,20.05.65,3.1,1.23,6.22,2.15,9.24.77,2.6,1.8,5.12,2.76,7.64.59,1.72,1.54,4.06.84,5.52-.92,1.91-5.48,1.42-7.51,1.55-4.29.06-8.68.74-13,1.14-2.92.28-5.85.61-8.67,1.47-3.41,1.04-6.68,2.55-9.87,4.19-4.11,2.16-8.21,4.35-12.06,7.04-1.65,1.14-3.29,2.34-4.88,3.55-3.23,2.45-6.7,5.67-2.76,9.47,1.08,1.07,2.5,2.07,3.81,2.97,1.24.86,2.48,1.75,3.68,2.68,4.81,3.66,8.94,8.27,13.8,11.88,1.4,1.04,2.85,2.02,4.29,3.01,3.48,2.42,6.97,4.95,9.92,8.08,1.95,2.08,3.6,4.47,5.46,6.64,4.04,4.85,9.44,8.01,14.53,11.47,1.68,1.14,3.37,2.28,5.18,3.17,3.28,1.64,6.91,2.33,10.5,2.99,1.76.31,3.53.55,5.31.69,8.5.77,12.67-1.57,18.04-8.55,1.15-1.5,2.26-3.05,3.56-4.39,1.46-1.53,3.2-2.72,5.07-3.44,2.93-1.14,5.96-1.19,9.22-1.31,3.3-.14,6.65-.19,9.94-.36,2.85-.16,5.68-.59,8.33-1.72,4.58-2,8.91-5.8,11.93-10.02,2.68-3.83,4.27-8.36,6.11-12.69,3.49-7.92,5.88-14.75,5.45-23.67-.18-6.81-2.01-13.45-5.26-19.32-4.45-7.75-6.04-11.78-5.48-21.03v-.03Z"/>
</svg>