<?xml version="1.0" encoding="UTF-8"?>
<svg id="Layer_1" xmlns="http://www.w3.org/2000/svg" version="1.1" viewBox="0 0 196.52 211.2">
  <!-- Generator: Adobe Illustrator 30.3.0, SVG Export Plug-In . SVG Version: 2.1.3 Build 182)  -->
  <defs>
    <style>
      .st0 {
        fill: #fff;
      }
    </style>
  </defs>
  <path class="st0" d="M176.6,113.07c-.16-2.43.05-9.07-2.55-8.76-1.63.26-3.11,1.47-5.42,2.66-7.27,4.18-12.68.58-15.69-6.65-2.99-7.6-3.01-16.1-3.23-24.18-.15-8.87-.07-17.77-1.04-26.59-.84-6.83-2.53-16.56-9.36-19.61-4.26-1.74-8.7.88-11.55,4.43-3.14,3.82-5.15,8.69-6.67,13.42-5.09,16.15-5.24,33.43-9.74,49.73-.87,3.05-1.99,6.17-3.51,8.89-2.65,4.86-6.14,7.27-9.57,7.37-3.43-.1-6.92-2.52-9.57-7.37-1.52-2.72-2.64-5.84-3.51-8.89-4.5-16.3-4.65-33.59-9.74-49.73-1.52-4.73-3.53-9.59-6.67-13.42-2.86-3.55-7.29-6.18-11.55-4.43-6.83,3.05-8.52,12.78-9.36,19.61-.97,8.82-.9,17.72-1.04,26.59-.22,8.08-.24,16.57-3.23,24.18-3.01,7.23-8.42,10.83-15.69,6.65-2.3-1.19-3.79-2.4-5.42-2.66-2.6-.3-2.39,6.34-2.55,8.76-.16,10.59-.09,21.24-.05,31.83.05,5.36.21,10.8,1.24,16.05.8,4.07,2.25,8.27,4.77,11.45,4.72,6.03,11.77,5.82,15.91-.59,2.45-3.67,3.62-8.36,4.32-12.76.43-2.77.7-5.58.89-8.38.75-10.7.26-21.5,1.07-32.21.38-4.53,1.05-9.28,2.83-13.43,2.76-6.69,8.86-10.21,15.1-5.33,4.25,3.32,6.87,8.81,8.73,13.89,6.08,17.16,5.69,35.87,10.82,53.22,1.76,5.73,5.28,13.82,11.58,14.9v.08c.39.04.77.05,1.14.03.37.01.75,0,1.14-.03v-.08c6.3-1.07,9.82-9.16,11.58-14.9,5.13-17.36,4.74-36.07,10.82-53.22,1.86-5.08,4.48-10.57,8.73-13.89,6.24-4.87,12.34-1.36,15.1,5.33,1.78,4.15,2.45,8.9,2.83,13.43.81,10.71.32,21.51,1.07,32.21.19,2.8.46,5.61.89,8.38.7,4.4,1.87,9.09,4.32,12.76,4.13,6.41,11.19,6.62,15.91.59,2.52-3.17,3.98-7.37,4.77-11.45,1.03-5.25,1.19-10.69,1.24-16.05.04-10.59.1-21.25-.05-31.83Z"/>
</svg>