<?xml version="1.0" encoding="UTF-8"?>
<svg id="Layer_1" data-name="Layer 1" xmlns="http://www.w3.org/2000/svg" viewBox="0 0 196.52 211.2">
  <defs>
    <style>
      .cls-1 {
        fill: #fff;
      }
    </style>
  </defs>
  <path class="cls-1" d="M110.65,191.89c-1.22,0-2.47-.14-3.71-.41-4.39-.97-8.58-3.52-11.82-7.18-3.4-3.85-5.55-8.34-6.21-12.98-.87-6.06.84-12.1,2.81-17.72,1.35-3.86,2.83-7.71,4.26-11.43,3.37-8.79,6.55-17.09,8.54-26.04.06-.29.15-.64.24-1.05.44-1.92,1.17-5.08,1.67-8.2.19-1.18.33-2.26.42-3.22l.36-3.76-3.21.36c-2.8.31-6.25.84-8.2,1.25l-1.15.24-.62,1.16c-1.51,2.85-3.33,5.86-5.55,9.2-2,3-4.21,5.99-6.36,8.87-6.59,8.87-12.81,17.24-14.91,27.94-.54,2.78-.85,5.76-1.18,8.93-.72,6.95-1.54,14.82-5.33,20.8-2.33,3.66-5.68,6.28-9.43,7.36-1.26.36-2.56.55-3.85.55-2.65,0-5.28-.78-7.62-2.25-5.37-3.38-9.26-9.97-10.96-18.54l-.67-3.4,3.05.08c1.29,0,2.64-.85,4.14-2.59,1.53-1.78,2.88-4.15,3.96-6.05l.42-.74c1.49-2.59,2.98-5.3,4.43-7.92l.04-.07c4.55-8.26,9.25-16.79,15.11-24.07,2.96-3.68,6.43-7.31,10.92-11.45l-2.33-5.37-1.3.43c-4.21,1.37-8.18,2.67-11.79,5.16-5.62,3.86-10.76,9.56-15.29,16.92-1.22,1.99-2.41,4.22-3.66,6.58-3.6,6.77-7.66,14.41-13.89,18.26-1.44.89-3.17,1.4-4.75,1.4s-2.92-.48-4.05-1.42c-1.62-1.34-2.65-3.61-3.15-6.91-.77-5.12-.13-10.44,1.86-15.38,1.9-4.71,4.86-8.72,8.57-11.6,2.73-2.12,5.72-3.79,8.61-5.4,1.79-1,3.47-1.94,5.1-2.97,3.55-2.26,6.9-4.92,10.46-7.74,3.38-2.68,6.86-5.44,10.47-7.78,2.07-1.34,4.87-3.03,8.14-4.18l-.35-5.97c-1.25-.23-2.58-.35-3.98-.35-4.74,0-9.62,1.29-14.78,2.67-4.8,1.27-9.75,2.59-14.62,2.77-.27.01-.62.02-1.04.02-3.68,0-6.37-1.1-7.99-3.27-1.89-2.52-1.92-5.77-1.74-8.31.44-6.1,2.08-10.59,5.02-13.73,3.22-3.43,7.59-4.61,10.7-5,.95-.12,1.94-.18,2.93-.18,2.93,0,5.88.53,8.3,1.5,2.8,1.12,5.27,2.83,7.57,5.23.38.39.73.78,1.07,1.16,1.09,1.2,2.12,2.33,3.27,3.01,2.43,1.43,5.27,1.86,8.28,2.32,2.74.42,5.84.89,8.67,2.25,1.95.94,3.87,1.98,5.72,2.99,1.61.88,3.14,1.71,4.71,2.49l.85.42,1.02-.33,3.86-1.23-2.5-3.65c-1-1.45-1.8-2.92-2.45-4.48-2.17-5.15-2.77-11.01-3.31-16.19l-.14-1.39c-.26-2.48-.2-4.61.18-6.53.46-2.3,1.4-4.3,2.79-5.94,2.66-3.13,7.04-4.66,13.38-4.66h.55c4.11.06,7.71.56,10.7,1.48,4.88,1.5,8.12,4.15,9.62,7.86,1.18,2.92.89,5.97-.85,8.83-1.3,2.14-3.3,4.01-5.06,5.67-.76.71-1.9,1.79-2.74,2.72l-1.61,1.8,1.25,2.15c.97,1.66,1.53,3.12,1.78,4.59l.45,2.67,2.32-.2c.45-.04,1.1-.14,1.73-.24l.68-.11.55-.48c2.71-2.4,6.09-5.39,9.67-7.63,1.36-.85,2.84-1.6,4.27-2.33,2.54-1.29,5.15-2.62,6.93-4.42,1.25-1.27,2.14-3.19,3.09-5.22.58-1.24,1.17-2.51,1.88-3.73,1.4-2.39,3.66-4.75,6.2-6.48,1.78-1.21,4.52-2.66,7.41-2.66.33,0,.66.02.99.06,2.97.35,5.61,2.93,7.44,7.25.62,1.47,1.73,4.42,2.16,7.65.53,4.04-.2,7.1-2.16,9.09-1.33,1.35-3.07,1.96-5.64,1.96-.62,0-1.2-.03-1.77-.06-.35-.02-.68-.04-.95-.04-.33,0-.66-.01-.99-.01-3.87,0-7.91.58-12,1.72l.71,6.05c.38-.02.76-.03,1.14-.03,1.27,0,2.51.1,3.68.3,2.87.49,5.51,1.56,8.07,2.61,1.06.43,2.06.84,3.08,1.21l1.3.47c3.36,1.21,6.84,2.47,10.12,4.28,2.62,1.45,4.62,3.24,5.95,5.34,1.36,2.15,2.1,4.58,2.54,6.23,1.06,3.98,1.86,7.62,2.43,11.13.48,2.94,1.49,9.04-1.7,12.55-1.05,1.15-2.34,1.76-3.74,1.76h0c-.16,0-.31,0-.47-.02-2.04-.2-4.2-1.65-6.61-4.44-1.73-2.02-3.24-4.33-4.05-5.58l-.19-.29c-.97-1.49-1.96-3.08-2.92-4.61-3.14-5.04-6.38-10.25-10.2-14.15-3.99-4.08-8.04-6.06-12.39-6.06-.14,0-.28,0-.42,0l-8.61.28,6.96,5.36c3.71,2.86,7.03,6.58,9.87,11.07,2.76,4.36,5.14,9.1,7.44,13.69,2.8,5.58,5.45,10.85,8.76,15.62.38.55.76,1.08,1.17,1.65,1.21,1.71,2.46,3.46,3.55,5.35,2.24,3.86,3.4,7.21,3.54,10.24.14,3-1.31,4.56-1.93,5.22-2.21,2.37-4.57,3.79-7.03,4.22-.51.09-1.04.14-1.56.14-2.1,0-4.17-.72-6.16-2.13-5.6-3.98-9.31-11.92-11.91-18.4-1.3-3.24-2.37-6.66-3.4-9.97-1.08-3.47-2.11-6.74-3.38-9.87-2.07-4.83-4.6-9.02-7.77-12.86-1.23-1.49-2.55-2.94-4.04-4.4l-3.69-3.64-.69,6.36c-.63,5.78-1.42,12.95-2.08,18.85l-.07.67c-.64,5.74-1.07,9.58-1.16,10.55-.71,7.11-.85,13.27-.43,18.84.51,6.68,1.8,12.4,3.95,17.5.18.42.36.85.56,1.3,1.29,2.95,2.75,6.29,2.39,10.11-.32,3.5-2.22,6.85-5.19,9.19-2.65,2.08-5.87,3.18-9.31,3.18Z"/>
</svg>