<?xml version="1.0" encoding="UTF-8"?>
<svg id="Layer_1" xmlns="http://www.w3.org/2000/svg" version="1.1" viewBox="0 0 196.52 211.2">
  <!-- Generator: Adobe Illustrator 30.3.0, SVG Export Plug-In . SVG Version: 2.1.3 Build 182)  -->
  <defs>
    <style>
      .outside-st0 {
        fill: currentColor;
      }
    </style>
  </defs>
  <path class="outside-st0" d="M107.78,85.12c.09.14.19.26.3.36.6.16,1.18.36,1.77.58l-2.07-.95Z"/>
  <path class="outside-st0" d="M195.89,92.46c-.81-4.25-1.99-8.42-3.54-12.45-.8-2.08-1.77-4.22-3.53-5.55-2.49-1.88-5.95-1.69-8.95-.88-7.64,2.06-13.96,7.36-20.26,12.23-8.44,6.53-22.77,12.63-34.75,16.04-.68-3.45-1.93-6.8-4.02-9.59-1.39-1.85-3.17-3.42-5.19-4.5,3.8-6.76,7.38-13.76,12.13-19.38,6.15-7.27,14.67-12.01,23.25-15.98,4.44-2.06,9.2-4.16,11.93-8.27,4.63-6.99,1.46-16.57-3.05-23.64-2.69-4.21-6.25-8.41-11.1-9.27-7.35-1.31-13.77,5.74-16.02,12.98-2.25,7.25-1.94,15.14-4.35,22.33-2.25,6.72-6.73,12.4-9.77,18.78-3.14,6.61-4.79,14.06-7.05,21.08-.21-.03-.41-.06-.62-.08-1.01-.1-2.19-.15-2.9-.82-1.44-.4-2.91-.62-4.4-.69.5-9.18-1.18-18.28-4.3-27.98-1.17-3.65-2.64-7.27-2.87-11.1-.66-11.34,9.61-22.03,6.38-32.91C100.54,4.95,91.88.78,83.85.1c-4.81-.41-10.26.38-13.26,4.24-3.14,4.06-2.42,9.87-1.36,14.92,5.13,24.61,14.06,44.91,23.7,67.01-.99.29-1.97.6-2.93.94-1.88.66-3.77,1.42-5.48,2.44-4.97-6.52-9.41-13.52-16.09-18.91-7.01-5.66-16.24-8.4-22.16-15.24-4.92-5.68-7.22-13.85-13.57-17.81-5.9-3.68-14.41-2.09-18.65,3.48-3.22,4.22-3.89,9.87-4.06,15.22-.09,2.87-.02,5.91,1.47,8.34,1.73,2.8,4.98,4.18,8.11,5.09,13.08,3.8,27.9,2.5,39.3,10.06,5.22,3.47,9.25,8.54,14.39,12.13,1.85,1.3,3.83,2.38,5.86,3.37-1.17,2.46-1.55,5.27-1.45,8.14-2.65-.03-5.3.11-7.89.65-4.58.95-8.81,3.09-13.21,4.7-8.57,3.13-17.85,4.19-26.89,3.08-5.89-.72-12.02-2.33-17.63-.36-9.82,3.46-13.23,16.24-11.69,26.71.36,2.42.96,4.94,2.64,6.69,2,2.08,5.13,2.63,7.96,2.28,8.96-1.08,15.25-9.22,22.95-14.01,13.04-8.1,30.08-6.43,43.52-13.82,1.29-.71,2.54-1.5,3.75-2.34.41.73.88,1.43,1.42,2.08,1.49,1.8,3.43,3.12,5.51,4.15-13.59,17.89-31.75,31.51-49.66,44.88-4.23,3.16-9.7,6.46-14.38,4.03,1.55,8.11,5.2,16.17,11.76,21.02,6.56,4.85,16.41,5.57,22.53.14,6.11-5.42,6.82-14.62,9.65-22.35,4.56-12.46,15.08-21.62,21.49-33.21,2.27-4.1,3.78-8.12,4.86-12.22,3.83.99,7.83,1.31,11.76.97.83,6.04.68,12.3-.12,18.28-1.72,12.84-6.67,24.97-11.67,36.89-1.06,2.53-2.15,5.13-2.25,7.88-.12,3.03.98,5.99,2.46,8.63,3.73,6.62,10.29,11.72,17.71,12.82,4.81.71,11.22-2.05,10.48-6.94-.24-1.6-1.23-2.95-2.1-4.3-6.09-9.48-7.09-21.42-6.69-32.74.39-11.32,1.99-22.72.38-33.93-.39-2.7-.87-5.33-1.52-7.84,1.45-.43,2.87-.98,4.12-1.82,6.39,9.85,12.32,20,17.78,30.41,2.95,5.63,5.83,11.43,10.2,16,4.37,4.57,10.6,7.81,16.8,6.86,7.91-1.2,13.38-8.52,17.57-15.46.92-1.52,1.85-3.18,1.69-4.96-.22-2.62-2.78-4.47-5.32-4.94-2.54-.47-5.14.05-7.71.14-9.67.37-18.65-5.25-25.61-12.1-6.96-6.84-12.53-15.05-19.57-21.81-.18-.18-.36-.35-.54-.51,1.13-1.75,2.12-3.59,2.68-5.6.22-.8.36-1.61.45-2.43,2.83.24,5.67.37,8.5.51,14.04.66,28.07,1.32,42.11,1.98,6.78.32,14.81.03,18.6-5.7,2.53-3.84,2.2-8.9,1.34-13.44Z"/>
</svg>