<?xml version="1.0" encoding="UTF-8"?>
<svg id="Layer_1" data-name="Layer 1" xmlns="http://www.w3.org/2000/svg" viewBox="0 0 196.52 211.2">
  <defs>
    <style>
      .cls-1 {
        fill: #fff;
      }
    </style>
  </defs>
  <path class="cls-1" d="M47.64,164.44c-7-6.2-11.6-17.13-14.72-28.37-1.87-6.86-3.55-14.02-3.7-21.55-.19-7.03.7-14.29,2.92-20.44,6.08-17.51,19.01-11.71,22.6-28.08,2.08-10.34-6.7-13.63-6.84-20.76.08-2.64,1.56-4.39,3.09-5.22,28.72-12.8,59.6-14.3,88.84-4.79,1.28.5,2.55,1.15,3.64,2.19.87.82,1.64,1.92,2.18,3.26,2.06,5.05.61,12.24-3.17,14.03-.76.39-1.57.57-2.37.51-1.42-.15-2.87-1.16-3.01,1.87-.19,3.61,1,7.19,2.58,9.78,1.94,3.15,4.52,4.94,7.04,6.65,12.38,6.93,21.29,26.47,20.57,46.93-.13,4.06-.74,8.22-2,11.78-3.33,8.69-8.77,18.07-14.02,25.62-14.77,19.59-34.42,25.94-53.85,23.88-18.42-1.32-34.58-3.4-49.75-17.28l-.02-.02Z"/>
</svg>