<?xml version="1.0" encoding="UTF-8"?>
<svg id="Layer_1" xmlns="http://www.w3.org/2000/svg" version="1.1" viewBox="0 0 89.4 156.39">
  <!-- Generator: Adobe Illustrator 30.3.0, SVG Export Plug-In . SVG Version: 2.1.3 Build 182)  -->
  <defs>
    <style>
      .st0 {
        fill: #fff;
      }
    </style>
  </defs>
  <path class="st0" d="M70.09,151.83c-12.69,9.92-44.69,3.29-42.31-16.19.88-4.63,5.09-8.76,7.14-12.85,2.85-5.29-2.57-9.12-6.36-11.97-2.81-2.22-5.38-4.6-7.71-7.29-6.21-7.71-12.57-15.81-16.36-25.05C-3.76,58.5-.94,43.09,15.45,68.96c6.35,9.25,6.39-.5,6.48-5.99.17-4.94.33-10.22.35-15.29.22-9.13-.9-18.44.93-27.42,2.08-8.28,7.82-6.05,9.37,1.12,1.42,6.04.92,12.49,1.03,18.64.11,7.99.23,15.89.78,23.83.58,9.45,5.39,9.61,6.3.05.5-6.27-.56-12.57-.54-18.86.01-8.73.12-17.55-1.33-26.22-3.19-14.89,9.45-26.97,12.33-11.91.86,10.19-.27,20.53.25,30.75.2,8.05-1.78,16.09-1.87,24.15-.15,2.57,1.11,11.42,4.26,6.43,2.29-5.36,2.45-11.74,2.65-17.53.2-11.17-2-22.82,1.9-33.52,2.36-7.4,9.63-11.77,12.49-1.89,1.88,7.4,1.16,15.16.91,22.76.31,8.91-7.37,32-2.81,38,7.64-1,1.65-41.81,11.4-44.81,5.74-.53,6.8,9.96,7.86,14.16,2.59,12.84.71,25.78-2.67,38.23-2.16,10.42-4.98,20.7-8.88,30.62-6.43,13.94,5.25,27.9-6.51,37.53l-.05.04Z"/>
</svg>