<?xml version="1.0" encoding="UTF-8"?>
<svg id="Layer_1" data-name="Layer 1" xmlns="http://www.w3.org/2000/svg" viewBox="0 0 196.52 211.2">
  <defs>
    <style>
      .cls-1 {
        fill: #fff;
      }
    </style>
  </defs>
  <path class="cls-1" d="M158.37,123.07c-6.57-11.72-27.51-13.12-34.92-24.41-2.57-3.85-1.76-8.5,2.34-11.53,7.39-5.57,19.98-5.94,27.07-11.94,8.65-7.19,3.32-15.71-8.59-17.22-10.96-1.42-22.22-.64-33.29-.85-5.26-.19-13.91.46-16.17-4.06-1.08-7.69,13.65-11.56,18.72-16.56,4.29-5.01-9.47-4.67-13.24-4.81-13.89.4-28.28-1.24-41.87,1.39-9.02,2.23-21.92,8.64-28.26,14.24-7.9,7.38-4.95,17.87,7.69,20.09,11.51,1.94,23.55.88,35.25,1.17,8.51-.29,21.37,1.59,9.54,8.69-6.72,3.83-15.9,4.78-22.46,8.78-7.05,4.01-6.64,11.27-.92,16.03,4.97,4.65,13.25,7.56,19.38,11.06,8.6,5.28-8.7,4.25-13.03,4.43-9.11.17-19.63-.41-26.7,4.55-6.3,4.51-5.4,12.23-1.23,17.55,5.58,7.69,16.48,11.81,25.02,17.05,11.99,7.81,7.93,14.37,11.43,23.94,3.4,7.16,14.15,6.78,22.58,6.81,6.09.02,12.19.02,18.28,0,7.26-.29,16.79,1.11,22.01-3.39,4.95-5.01,2.78-18.36-2.27-23.31-7.46-7.58-20.77-10.71-27.9-18.73-11.6-13.15,17.8-9.22,26.8-9.86,8.45-.17,28.03,1.13,24.72-9.09v-.02Z"/>
</svg>