<?xml version="1.0" encoding="UTF-8"?>
<svg id="Layer_1" data-name="Layer 1" xmlns="http://www.w3.org/2000/svg" viewBox="0 0 196.52 211.2">
  <defs>
    <style>
      .cls-1 {
        fill: #fff;
      }
    </style>
  </defs>
  <path class="cls-1" d="M180.22,146.04c-2.13-10.34-23.8-12.62-32.6-13.98-12.51-1.73-24.4-2.73-36.93-2.68-7.22-.18-14.59.4-21.73-.86-4-.74-8.35-2.49-10.54-5.81-3.17-4.78-.45-9.8,4.67-11.79,4.31-1.78,9.41-1.94,14.09-2,9.86-.07,19.73.07,29.58-.34,9-.45,28.04-1.65,30.49-12.34.94-7.2-7.56-11.03-13.36-12.83-15.53-4.64-32.26-4.29-47.61-9.78-4.54-1.68-9.45-4.05-12.42-7.89-4.36-5.64-1.22-11.15,4.77-13.64,3.71-1.61,7.96-2.21,12.01-2.56,9.58-.73,19.24-.29,28.81-.97,2.51-.17,5.02-.41,7.5-.8,3.94-.64,8.13-1.69,11.41-3.91,5.74-3.74,5.92-10.11.53-14.38-2.84-2.28-6.6-3.59-10.24-4.31-4.7-.93-9.56-1.08-14.35-1.12-9.47-.03-19-.09-28.47.05-2.17.14-8.11-.05-7.84,2.3.23,1.47,1.31,2.81,2.38,4.89,3.74,6.57.52,11.46-5.95,14.18-6.8,2.7-14.4,2.72-21.63,2.92-7.93.13-15.89.07-23.78.94-6.11.76-14.81,2.29-17.54,8.46-1.56,3.85.79,7.86,3.96,10.44,3.42,2.84,7.77,4.66,12,6.03,14.44,4.6,29.9,4.73,44.48,8.8,2.73.79,5.52,1.8,7.95,3.17,9.36,5.16,8.58,13.86-1.15,17.87-4.61,1.9-9.84,2.39-14.83,2.6-9.83.25-19.67.02-29.51.18-4.1.06-8.22.13-12.29.59-3.03.35-6.18.97-8.91,2.17-5.26,2.18-8.68,7.06-6.11,12.58,1.29,2.82,3.73,5.07,6.29,6.77,9.43,6.04,20.57,4.96,31.45,5.18,12.03.09,24.4-.07,36.37-.04,4.48.07,8.91.37,13.28,1.37,4.31.99,9.08,2.81,12.26,5.84,4.11,3.9,3.53,8.8-1.19,12.17-5.62,3.96-12.68,4.61-19.17,6.32-7.12,1.72-14.06,4.4-20.48,7.99-4.38,2.46-10.18,6.18-12.35,10.41-.8,1.5-1.12,3.38-.17,4.86.83,1.52,3.42,2.7,5.73,3.18,3.48.77,7.34.81,10.95.83,10.11-.05,20.36.28,30.45-.21,1.71-.16,3.2-.45,4.51-.91,5.93-2.13,8.29-8.08,13.01-12.17,1.71-1.56,3.72-2.95,5.7-4.19,7.07-4.36,14.9-7.66,22.93-9.66,6.33-1.7,13.34-2.42,18.97-5.96,2.79-1.72,5.24-4.84,4.62-7.96v-.02Z"/>
</svg>