<?xml version="1.0" encoding="UTF-8"?>
<svg id="Layer_1" xmlns="http://www.w3.org/2000/svg" version="1.1" viewBox="0 0 196.52 211.2">
  <!-- Generator: Adobe Illustrator 30.3.0, SVG Export Plug-In . SVG Version: 2.1.3 Build 182)  -->
  <defs>
    <style>
      .uncat-st0 {
        fill: currentColor;
      }
    </style>
  </defs>
  <path class="uncat-st0" d="M186.67,144.17c-2.09-4.4-6.65-6.94-11.1-8.78-18.61-7.68-40.6-8.13-56.14-21.07-3.09-2.57-5.81-5.56-8.46-8.61,2.87-4.81,5.91-9.4,9.38-13.5,9.09-10.75,21.68-17.75,34.36-23.62,6.56-3.04,13.6-6.14,17.63-12.23,6.85-10.33,2.16-24.49-4.51-34.95-3.97-6.22-9.24-12.43-16.41-13.71-10.86-1.94-20.36,8.48-23.69,19.19-3.32,10.71-2.86,22.38-6.43,33.01-3.33,9.93-9.95,18.33-14.44,27.77-1.29,2.72-2.41,5.55-3.43,8.42-2.05-5.79-4.47-11.48-7.87-16.87-7.11-11.27-18.72-19.5-23.74-31.89-4.17-10.3-3.5-22.83-10.49-31.39-6.5-7.96-19.17-9.81-27.76-4.04-6.52,4.38-10.16,11.96-12.94,19.36-1.49,3.97-2.85,8.26-1.91,12.37,1.08,4.75,4.97,8.23,8.91,10.99,16.49,11.56,37.85,16.81,50.19,32.82,4.24,5.5,7.11,11.95,10.59,17.98-.02-.01-.04-.03-.07-.04-1.77,2.43-3.63,4.78-5.56,7.03-12.45,14.55-28.35,25.62-44.13,36.38-3.35,2.29-6.79,4.64-9.13,7.97-2.58,3.67-3.61,8.22-3.89,12.68-.7,11.22,3.34,22.82,11.66,30.14,5.39,4.75,15.57,6.47,18.59-.19.99-2.17.85-4.65.86-7.02.07-16.66,8.42-32.27,18.02-46,6.97-9.98,14.74-19.49,21.17-29.78,2.37,3.36,4.97,6.6,7.97,9.61,9.4,9.44,22.53,14.94,30.13,25.93,6.32,9.14,8.4,21.51,17.1,28.34,8.09,6.35,20.85,5.38,27.97-2.13,5.4-5.7,7.3-13.89,8.4-21.72.59-4.2.98-8.68-.83-12.49Z"/>
</svg>